<svg xmlns="http://www.w3.org/2000/svg" viewBox="0 0 70 87.5" x="0px" y="0px"><path d="M69,70H1a1,1,0,0,1-1-1V64a1,1,0,0,1,1-1H69a1,1,0,0,1,1,1v5A1,1,0,0,1,69,70ZM2,68H68V65H2Z"/><path d="M64.81,65H5.19a1,1,0,0,1-1-1V59a1,1,0,0,1,1-1H64.81a1,1,0,0,1,1,1v5A1,1,0,0,1,64.81,65ZM6.19,63H63.81V60H6.19Z"/><path d="M64.81,21.6H5.19a1,1,0,0,1-1-1V15.31a1,1,0,0,1,.57-.9L34.57.1a1,1,0,0,1,.86,0L65.24,14.41a1,1,0,0,1,.57.9V20.6A1,1,0,0,1,64.81,21.6Zm-58.62-2H63.81V15.94L35,2.11,6.19,15.94Z"/><path d="M60.08,60H49.36a1,1,0,0,1-1-1V54.32a1,1,0,0,1,1-1H60.08a1,1,0,0,1,1,1V59A1,1,0,0,1,60.08,60Zm-9.72-2h8.72V55.32H50.36Z"/><path d="M60.08,26.28H49.36a1,1,0,0,1-1-1V20.6a1,1,0,0,1,1-1H60.08a1,1,0,0,1,1,1v4.68A1,1,0,0,1,60.08,26.28Zm-9.72-2h8.72V21.6H50.36Z"/><path d="M58,55.32H51.47a1,1,0,0,1-1-1v-29a1,1,0,0,1,1-1H58a1,1,0,0,1,1,1v29A1,1,0,0,1,58,55.32Zm-5.51-2H57v-27H52.47Z"/><path d="M20.64,60H9.92a1,1,0,0,1-1-1V54.32a1,1,0,0,1,1-1H20.64a1,1,0,0,1,1,1V59A1,1,0,0,1,20.64,60Zm-9.72-2h8.72V55.32H10.92Z"/><path d="M20.64,26.28H9.92a1,1,0,0,1-1-1V20.6a1,1,0,0,1,1-1H20.64a1,1,0,0,1,1,1v4.68A1,1,0,0,1,20.64,26.28Zm-9.72-2h8.72V21.6H10.92Z"/><path d="M18.53,55.32H12a1,1,0,0,1-1-1v-29a1,1,0,0,1,1-1h6.51a1,1,0,0,1,1,1v29A1,1,0,0,1,18.53,55.32Zm-5.51-2h4.51v-27H13Z"/><path d="M35,48.76a5,5,0,0,1-5-5,1,1,0,0,1,2,0,3,3,0,0,0,6,0c0-1.41-.95-2.29-3.28-3-3.1-1-4.68-2.64-4.68-4.93a5,5,0,0,1,10,0,1,1,0,0,1-2,0,3,3,0,0,0-6,0c0,.85.34,2.09,3.28,3,2,.64,4.68,1.84,4.68,4.93A5,5,0,0,1,35,48.76Z"/><path d="M35,32.85a1,1,0,0,1-1-1V29.79a1,1,0,1,1,2,0v2.06A1,1,0,0,1,35,32.85Z"/><path d="M35,50.82a1,1,0,0,1-1-1V47.76a1,1,0,1,1,2,0v2.06A1,1,0,0,1,35,50.82Z"/><path d="M35,16.92a4.62,4.62,0,1,1,4.62-4.62A4.63,4.63,0,0,1,35,16.92Zm0-7.24a2.62,2.62,0,1,0,2.62,2.62A2.62,2.62,0,0,0,35,9.68Z"/><text x="0" y="85" fill="#000000" font-size="5px" font-weight="bold" font-family="'Helvetica Neue', Helvetica, Arial-Unicode, Arial, Sans-serif">Created by Martin Königsmann</text><text x="0" y="90" fill="#000000" font-size="5px" font-weight="bold" font-family="'Helvetica Neue', Helvetica, Arial-Unicode, Arial, Sans-serif">from the Noun Project</text></svg>